<?xml version="1.0" encoding="UTF-8"?>
<svg version="1.1" xmlns="http://www.w3.org/2000/svg" width="126" height="126">
<path d="M0 0 C13.82869698 10.92708132 24.55156119 25.11223219 27 43 C28.5416656 61.29944538 25.25265116 78.5571555 13.48828125 93.23046875 C3.46516416 105.05186165 -11.30128384 114.38064819 -27 116 C-45.22581429 117.14314667 -62.52649776 114.37901626 -76.84326172 102.13891602 C-88.59091914 91.4866331 -97.83677738 77.5901892 -99.22119141 61.41577148 C-100.05718101 41.22573319 -96.59811116 25.29162245 -83.31640625 9.4140625 C-61.98803994 -12.81347608 -25.69142319 -17.82595171 0 0 Z " fill="#C6D1E4" transform="translate(99,10)"/>
<path d="M0 0 C0.08636719 0.72445312 0.17273438 1.44890625 0.26171875 2.1953125 C1.20279117 8.67058142 2.10735501 12.55214092 7 17 C8.051875 17.391875 9.10375 17.78375 10.1875 18.1875 C13 20 13 20 13.6484375 22.484375 C13.92440438 24.45259159 14.19654289 26.42134876 14.46484375 28.390625 C14.83937016 31.21113691 14.83937016 31.21113691 17.125 33.6875 C20.91785212 35.41901945 23.9084809 35.91749216 28 35 C31.14358251 33.2739971 31.14358251 33.2739971 33 30 C33.68230096 26.66487217 33.92738835 23.39954547 34 20 C33.34 20 32.68 20 32 20 C32.06960937 20.59167969 32.13921875 21.18335937 32.2109375 21.79296875 C32.635023 27.98259756 32.635023 27.98259756 30.91015625 30.74609375 C28.11932493 33.35925942 26.15850077 33.99453446 22.375 34.125 C18.31509801 32.77169934 17.03738665 31.74879143 15 28 C14.4375 24.375 14.4375 24.375 15 21 C17.1875 19.3125 17.1875 19.3125 20 18 C23.36079276 15.57710289 25.43948841 13.8365416 27 10 C27.45064632 7.41467299 27.45064632 7.41467299 27.625 4.75 C27.69976562 3.85796875 27.77453125 2.9659375 27.8515625 2.046875 C27.90054688 1.37140625 27.94953125 0.6959375 28 0 C37.33758323 0.75303091 46.36465234 1.86700126 53 9 C55.20292211 14.01277174 55.24311853 18.51423575 55.125 23.875 C55.11597656 24.65875 55.10695313 25.4425 55.09765625 26.25 C55.07428063 28.16680055 55.03841653 30.08344191 55 32 C39.39316235 42.6429378 13.36281676 41.95485642 -4.625 39.1875 C-6.42179926 38.81565876 -8.21380203 38.41982171 -10 38 C-11.58748047 37.67322266 -11.58748047 37.67322266 -13.20703125 37.33984375 C-24.27678316 34.89030977 -24.27678316 34.89030977 -27 31 C-28.188909 23.01732528 -27.18862801 14.47605625 -22.875 7.625 C-19.40662099 4.45821917 -16.46194262 3.24079804 -12 2 C-11.28972656 1.79503906 -10.57945313 1.59007813 -9.84765625 1.37890625 C-6.43141255 0.45645683 -3.55864725 0 0 0 Z " fill="#597EFE" transform="translate(49,69)"/>
<path d="M0 0 C4.10143979 2.26425262 6.65048181 5.11346361 8.75 9.3125 C9.78409157 15.95111256 9.87835863 22.60932696 9.75 29.3125 C8.76 29.3125 7.77 29.3125 6.75 29.3125 C3.91273868 37.31411736 3.31648773 44.46641237 3.31054688 52.89648438 C3.21968995 57.20435599 3.15743622 59.65676931 0.83984375 63.38671875 C-2.12273762 66.11672364 -4.04315518 66.57269122 -8 66.8125 C-9.26070312 66.92078125 -9.26070312 66.92078125 -10.546875 67.03125 C-14.1870179 66.06335073 -15.78283262 64.36573607 -18.08544922 61.44287109 C-20.15009246 57.66591577 -19.76680645 54.06284667 -19.4375 49.875 C-18.99820478 43.07948253 -19.59511131 38.61700311 -22.25 32.3125 C-22.25 31.3225 -22.25 30.3325 -22.25 29.3125 C-23.24 29.3125 -24.23 29.3125 -25.25 29.3125 C-25.35901505 26.47810863 -25.43777904 23.64799797 -25.5 20.8125 C-25.53351562 20.02101563 -25.56703125 19.22953125 -25.6015625 18.4140625 C-25.69696131 12.59473496 -24.63897201 8.12295158 -21.25 3.3125 C-14.69924901 -1.90136304 -7.72604628 -3.58141959 0 0 Z " fill="#F6DDCE" transform="translate(71.25,18.6875)"/>
<path d="M0 0 C0.99 0 1.98 0 3 0 C3 1.32 3 2.64 3 4 C4.65 4 6.3 4 8 4 C8 5.32 8 6.64 8 8 C6.35 8 4.7 8 3 8 C3 9.32 3 10.64 3 12 C2.01 12 1.02 12 0 12 C0 10.68 0 9.36 0 8 C-1.65 8 -3.3 8 -5 8 C-5 6.68 -5 5.36 -5 4 C-3.35 4 -1.7 4 0 4 C0 2.68 0 1.36 0 0 Z " fill="#CAD3EA" transform="translate(40,85)"/>
<path d="M0 0 C3.0625 0.1875 3.0625 0.1875 5.0625 2.1875 C4.50694444 6.74305556 4.50694444 6.74305556 3.0625 8.1875 C2.69489269 10.51567964 2.36008419 12.8493385 2.0625 15.1875 C1.7325 15.1875 1.4025 15.1875 1.0625 15.1875 C1.0625 12.5475 1.0625 9.9075 1.0625 7.1875 C0.4025 7.1875 -0.2575 7.1875 -0.9375 7.1875 C-1.2675 7.8475 -1.5975 8.5075 -1.9375 9.1875 C-3.5 8 -3.5 8 -4.9375 6.1875 C-4.37480887 0.27924312 -4.37480887 0.27924312 0 0 Z " fill="#B4BFDC" transform="translate(81.9375,81.8125)"/>
<path d="M0 0 C0.33 0 0.66 0 1 0 C1.061875 1.051875 1.12375 2.10375 1.1875 3.1875 C2.15222465 7.71428491 3.3740539 9.19813256 7 12 C9.67790896 12.87238858 9.67790896 12.87238858 12 13 C12 13.66 12 14.32 12 15 C8.01272438 15.47467567 6.18006834 15.10003797 2.625 13.125 C0.51745339 11.23150109 0.04123857 10.28136736 -0.375 7.44140625 C-0.375 4.93325429 -0.26146527 2.49360401 0 0 Z " fill="#D0D8EA" transform="translate(63,90)"/>
<path d="M0 0 C1.32 0 2.64 0 4 0 C3.67 1.65 3.34 3.3 3 5 C2.01 4.67 1.02 4.34 0 4 C0 2.68 0 1.36 0 0 Z " fill="#0B0C0D" transform="translate(80,84)"/>
</svg>
